<?xml version="1.0" encoding="UTF-8" standalone="no"?>
<svg
   xmlns:dc="http://purl.org/dc/elements/1.1/"
   xmlns:cc="http://creativecommons.org/ns#"
   xmlns:rdf="http://www.w3.org/1999/02/22-rdf-syntax-ns#"
   xmlns:svg="http://www.w3.org/2000/svg"
   xmlns="http://www.w3.org/2000/svg"
   xmlns:sodipodi="http://sodipodi.sourceforge.net/DTD/sodipodi-0.dtd"
   xmlns:inkscape="http://www.inkscape.org/namespaces/inkscape"
   xml:space="preserve"
   viewBox="0 0 156.00001 142.00001"
   y="0px"
   x="0px"
   id="圖層_1"
   version="1.1"
   sodipodi:docname="797014795.svg"
   width="41.275002mm"
   height="37.570835mm"
   inkscape:version="0.92.3 (2405546, 2018-03-11)"><sodipodi:namedview
   pagecolor="#ffffff"
   bordercolor="#666666"
   borderopacity="1"
   objecttolerance="10"
   gridtolerance="10"
   guidetolerance="10"
   inkscape:pageopacity="0"
   inkscape:pageshadow="2"
   inkscape:window-width="1440"
   inkscape:window-height="837"
   id="namedview24"
   showgrid="false"
   units="mm"
   fit-margin-top="0"
   fit-margin-left="0"
   fit-margin-right="0"
   fit-margin-bottom="0"
   inkscape:zoom="1.6654905"
   inkscape:cx="77.949997"
   inkscape:cy="71.150001"
   inkscape:window-x="-8"
   inkscape:window-y="-8"
   inkscape:window-maximized="1"
   inkscape:current-layer="圖層_1" /><metadata
   id="metadata45"><rdf:RDF><cc:Work
       rdf:about=""><dc:format>image/svg+xml</dc:format><dc:type
         rdf:resource="http://purl.org/dc/dcmitype/StillImage" /><dc:title></dc:title></cc:Work></rdf:RDF></metadata><defs
   id="defs43">
	
	
	
	
</defs>
<style
   id="style2"
   type="text/css">
	.st0{fill:#006DAD;}
	.st1{fill:#F6AB00;}
	.st2{fill:#ED6D00;}
	.st3{fill:#2D4198;}
</style>
<g
   id="g41"><g
     id="g10">
		<path
   style="fill:#006dad"
   id="path4"
   d="m 146.4,92.1 c -2.7,0 -5,2.2 -5,5 0,2.7 2.2,5 5,5 2.7,0 5,-2.2 5,-5 0,-2.8 -2.2,-5 -5,-5 z"
   class="st0"
   inkscape:connector-curvature="0" />
		
			<circle
   style="fill:#006dad"
   r="5"
   id="ellipse6"
   cy="116.9"
   cx="9.5"
   class="st0"
   transform="matrix(0.9999,-0.01350969,0.01350969,0.9999,-1.5788,0.1386)" />
		<path
   style="fill:#006dad"
   id="path8"
   d="m 143.2,112 h -34.3 c -2.7,0 -5,-2.2 -5,-5 0,-2.7 2.2,-5 5,-5 h 22.6 c 2.7,0 5,-2.2 5,-5 0,-2.7 -2.2,-4.9 -4.9,-5 0,0 -8.9,0 -23,0 -19.5,0 -30.6,7 -30.6,7 0,0 -11.1,-7 -30.6,-7 -14.1,0 -37.3,0 -37.3,0 -2.7,0 -4.9,2.2 -4.9,5 0,2.7 2.2,5 5,5 h 26 c 2.7,0 5,2.2 5,5 0,2.7 -2.2,5 -5,5 H 24.5 c -2.7,0 -5,2.2 -5,5 0,2.7 2.2,5 5,5 h 5 c 2.7,0 5,2.2 5,5 0,2.7 -2.2,5 -5,5 h -5 c -2.7,0 -5,2.2 -5,5 0,2.7 2.2,5 5,5 h 30.2 c 2.7,0 5,-2.2 5,-5 0,-2.7 -2.2,-5 -5,-5 H 51 c -2.7,0 -5,-2.3 -5,-5 0,-2.6 2.2,-5 5,-5 h 44.4 c 2.7,0 5,2.2 5,5 0,2.8 -2.2,5 -5,5 H 77.6 c -2.7,0 -5,2.2 -5,5 0,2.7 2.2,5 5,5 h 52.3 c 2.7,0 5,-2.2 5,-5 0,-2.7 -2.2,-5 -5,-5 h -5 c -2.7,0 -5,-2.2 -5,-5 0,-2.7 2.2,-5 5,-5 h 18.4 c 2.7,0 5,-2.2 5,-5 -0.1,-2.8 -2.3,-5 -5.1,-5 z m -78.1,0 H 53.7 c -2.8,0 -5.1,-2.4 -5.1,-5.1 0,-2.7 2.3,-5.1 5.1,-5.1 h 11.5 c 2.8,0 5.1,2.3 5.1,5.1 0,2.8 -2.3,5.1 -5.2,5.1 z"
   class="st0"
   inkscape:connector-curvature="0" />
	</g><g
     id="g16">
		<polygon
   style="fill:#f6ab00"
   id="polygon12"
   points="78,31.7 65.4,40.2 73.4,26.9 65.4,13.7 78,22.1 90.5,13.7 82.5,26.9 90.5,40.2 "
   class="st1" />
		<polygon
   style="fill:#f6ab00"
   id="polygon14"
   points="75.3,29.8 55.5,26.9 75.3,24.1 78,0 80.7,24.1 100.4,26.9 80.7,29.8 78,53.9 "
   class="st1" />
	</g><g
     id="g34">
		<g
   id="g24">
			<path
   style="fill:#ed6d00"
   id="path18"
   d="M 78,84.8 C 69.9,74.3 58.3,68.9 45.8,64 37.7,60.8 13.8,52.3 4.9,49.3 l 6,13.7 c 13,2.9 28.5,6.1 33.6,7.3 7.2,1.6 23.9,6.1 33.5,14.5 z"
   class="st2"
   inkscape:connector-curvature="0" />
			<path
   style="fill:#ed6d00"
   id="path20"
   d="M 49.1,54.1 C 44,50.8 13.7,32.6 13.7,32.6 L 17,46.7 C 29,51.6 44,58 47.6,59.9 56.2,64.4 69.8,70.1 77.4,83 71.9,68.1 59.1,60.5 49.1,54.1 Z"
   class="st2"
   inkscape:connector-curvature="0" />
			<path
   style="fill:#ed6d00"
   id="path22"
   d="m 58.2,45.5 c -3.4,-3 -10.9,-10.2 -32,-26.6 l 0.8,14 c 8.7,5.9 20.4,13.8 23.5,16 12,8.7 22.5,16.3 27.1,32.3 C 76.8,63.2 66.4,52.8 58.2,45.5 Z"
   class="st2"
   inkscape:connector-curvature="0" />
		</g>
		<g
   id="g32">
			<path
   style="fill:#ed6d00"
   id="path26"
   d="M 78,84.8 C 86.1,74.3 97.7,68.9 110.2,64 c 8.1,-3.2 32,-11.7 40.9,-14.7 L 145,63 c -13,2.9 -28.5,6.1 -33.6,7.3 -7.2,1.6 -23.9,6.1 -33.4,14.5 z"
   class="st2"
   inkscape:connector-curvature="0" />
			<path
   style="fill:#ed6d00"
   id="path28"
   d="m 106.8,54.1 c 5.1,-3.3 35.4,-21.5 35.4,-21.5 l -3.3,14.1 C 126.8,51.6 111.9,58 108.2,59.9 99.7,64.4 86,70.1 78.5,83 84,68.1 96.8,60.5 106.8,54.1 Z"
   class="st2"
   inkscape:connector-curvature="0" />
			<path
   style="fill:#ed6d00"
   id="path30"
   d="m 97.7,45.5 c 3.4,-3 10.9,-10.2 32,-26.6 l -0.8,14 c -8.7,5.9 -20.4,13.8 -23.5,16 -12.1,8.7 -22.6,16.2 -27.2,32.3 0.9,-18 11.3,-28.4 19.5,-35.7 z"
   class="st2"
   inkscape:connector-curvature="0" />
		</g>
	</g><path
     style="fill:#2d4198"
     id="path36"
     d="M 78,84.8 C 77.3,84.4 59.3,71.5 0,69.6 l 8.2,15.3 c 35.2,0 59.4,3.3 69.8,9.6 10.4,-6.3 34.6,-9.6 69.8,-9.6 L 156,69.6 C 96.6,71.5 78.6,84.4 78,84.8 Z"
     class="st3"
     inkscape:connector-curvature="0" /></g>
</svg>