<svg width="22" height="22" viewBox="0 0 22 22" xmlns="http://www.w3.org/2000/svg">
  <path d="M11 18 c-0.8 0-1.5-0.7-1.5-1.5s0.7-1.5 1.5-1.5 1.5 0.7 1.5 1.5S11.8 18 11 18z" fill="#000"/>
  <path d="M11 13 c-1.7 0-3.3 0.7-4.5 1.8l-1.1-1.1c1.6-1.6 3.7-2.5 5.9-2.5s4.3 0.9 5.9 2.5l-1.1 1.1C14.3 13.7 12.7 13 11 13z" fill="#000"/>
  <path d="M11 8 c-2.8 0-5.5 1.1-7.5 3.1L2.4 10c2.4-2.4 5.6-3.7 9-3.7s6.6 1.3 9 3.7l-1.1 1.1C17.5 9.1 14.8 8 11 8z" fill="#000"/>
  <path d="M11 3 c-4 0-7.7 1.6-10.4 4.2L0 6.6C2.9 3.7 6.8 2 11 2s8.1 1.7 11 4.6l-0.6 0.6C18.7 4.6 15 3 11 3z" fill="#000"/>
</svg>
